<?xml version="1.0" encoding="utf-8" standalone="no"?>
<!DOCTYPE svg PUBLIC "-//W3C//DTD SVG 1.1//EN"
  "http://www.w3.org/Graphics/SVG/1.1/DTD/svg11.dtd">
<svg xmlns:xlink="http://www.w3.org/1999/xlink" width="460.8pt" height="345.6pt" viewBox="0 0 460.8 345.6" xmlns="http://www.w3.org/2000/svg" version="1.1">
 <metadata>
  <rdf:RDF xmlns:dc="http://purl.org/dc/elements/1.1/" xmlns:cc="http://creativecommons.org/ns#" xmlns:rdf="http://www.w3.org/1999/02/22-rdf-syntax-ns#">
   <cc:Work>
    <dc:type rdf:resource="http://purl.org/dc/dcmitype/StillImage"/>
    <dc:date>2023-05-28T17:00:06.584630</dc:date>
    <dc:format>image/svg+xml</dc:format>
    <dc:creator>
     <cc:Agent>
      <dc:title>Matplotlib v3.7.1, https://matplotlib.org/</dc:title>
     </cc:Agent>
    </dc:creator>
   </cc:Work>
  </rdf:RDF>
 </metadata>
 <defs>
  <style type="text/css">*{stroke-linejoin: round; stroke-linecap: butt}</style>
 </defs>
 <g id="figure_1">
  <g id="patch_1">
   <path d="M 0 345.6 
L 460.8 345.6 
L 460.8 0 
L 0 0 
L 0 345.6 
z
" style="fill: none"/>
  </g>
  <g id="axes_1">
   <g id="line2d_1">
    <path d="M 236.16 174.528 
L 257.537763 159.391165 
L 268.610428 151.816992 
L 277.556765 145.936563 
L 285.398622 141.014579 
L 293.115849 136.431691 
L 299.750822 132.736373 
L 306.262556 129.364869 
L 311.736382 126.75261 
L 317.102593 124.412363 
L 322.353551 122.357454 
L 327.481777 120.599582 
L 332.479971 119.148756 
L 336.540661 118.180296 
L 340.502089 117.434659 
L 344.360337 116.914795 
L 348.111591 116.62276 
L 351.752142 116.559707 
L 355.278388 116.725887 
L 358.686843 117.120642 
L 361.974137 117.742412 
L 365.137019 118.588737 
L 368.172361 119.656271 
L 371.077162 120.940792 
L 373.848549 122.437221 
L 376.483782 124.13964 
L 378.980256 126.041317 
L 381.3355 128.134731 
L 383.547187 130.411606 
L 385.613129 132.862936 
L 387.531284 135.479029 
L 389.299754 138.249539 
L 390.916792 141.16351 
L 392.380797 144.209418 
L 393.690322 147.375221 
L 395.056026 151.314785 
L 396.195478 155.386515 
L 397.107056 159.567229 
L 397.789461 163.833124 
L 398.241721 168.15991 
L 398.463194 172.522953 
L 398.453562 176.897413 
L 398.212841 181.258382 
L 397.741373 185.581031 
L 397.039828 189.840749 
L 396.109207 194.013282 
L 394.950834 198.074875 
L 393.566359 202.002402 
L 392.241325 205.15677 
L 390.761949 208.190019 
L 389.129694 211.090153 
L 387.346174 213.845705 
L 385.413153 216.445776 
L 383.332542 218.880086 
L 381.106398 221.139008 
L 378.736924 223.213609 
L 376.226461 225.095686 
L 373.577493 226.777796 
L 370.792639 228.253286 
L 367.874652 229.516323 
L 364.826419 230.561912 
L 361.650953 231.385918 
L 358.351395 231.985082 
L 354.931007 232.357035 
L 351.393172 232.500306 
L 347.741387 232.414329 
L 343.979265 232.099444 
L 340.110525 231.556895 
L 336.138993 230.788829 
L 332.068596 229.798283 
L 327.059292 228.321529 
L 321.920557 226.538498 
L 316.659707 224.459341 
L 311.284233 222.095896 
L 305.80179 219.46162 
L 299.280832 216.066089 
L 292.637545 212.348709 
L 284.911953 207.74323 
L 277.062962 202.801674 
L 268.110095 196.903077 
L 257.031627 189.312559 
L 242.794356 179.262866 
L 213.265117 158.337986 
L 202.210518 150.814644 
L 193.284303 144.99011 
L 185.464311 140.12801 
L 177.772637 135.613976 
L 171.162998 131.985719 
L 164.679322 128.68709 
L 159.231676 126.141499 
L 153.893567 123.871401 
L 148.672598 121.889719 
L 143.576202 120.207737 
L 138.611637 118.835032 
L 134.580308 117.933057 
L 130.649427 117.254883 
L 126.822881 116.803193 
L 123.104454 116.579772 
L 119.497822 116.585504 
L 116.006552 116.820367 
L 112.634097 117.283431 
L 109.383791 117.972866 
L 106.258848 118.885946 
L 103.262359 120.019058 
L 100.397286 121.367723 
L 97.666464 122.926608 
L 95.072591 124.689548 
L 92.618233 126.649571 
L 90.305818 128.798926 
L 88.137631 131.129115 
L 86.115817 133.630923 
L 84.242376 136.294455 
L 82.519158 139.10918 
L 80.94787 142.063967 
L 79.530064 145.147131 
L 78.267142 148.34648 
L 76.957831 152.321221 
L 75.875208 156.422397 
L 75.020815 160.626659 
L 74.395867 164.910069 
L 74.001256 169.24824 
L 73.837543 173.616471 
L 73.904961 177.989892 
L 74.203414 182.343603 
L 74.732477 186.652815 
L 75.491397 190.892993 
L 76.479093 195.039996 
L 77.694159 199.070213 
L 79.134865 202.960696 
L 80.506346 206.080018 
L 82.031746 209.074569 
L 83.709556 211.932507 
L 85.538119 214.642532 
L 87.515624 217.193925 
L 89.640118 219.576599 
L 91.909498 221.78113 
L 94.321521 223.798801 
L 96.873803 225.621634 
L 99.563818 227.24242 
L 102.388907 228.654749 
L 105.346276 229.853037 
L 108.433002 230.832545 
L 111.646031 231.5894 
L 114.982186 232.120609 
L 118.438169 232.424071 
L 122.010561 232.498586 
L 125.695831 232.34386 
L 129.490334 231.960504 
L 133.390318 231.350034 
L 137.391927 230.514864 
L 141.491202 229.458298 
L 146.53354 227.904118 
L 151.703497 226.046036 
L 156.993712 223.894633 
L 162.396652 221.462158 
L 167.904623 218.762459 
L 174.452867 215.295657 
L 181.1207 211.512976 
L 188.870929 206.840824 
L 196.740853 201.841726 
L 205.712779 195.890029 
L 216.807999 188.252278 
L 232.076613 177.443782 
L 236.16 174.528 
L 236.16 174.528 
" clip-path="url(#pf753abd44d)" style="fill: none; stroke: #000000; stroke-width: 1.5; stroke-linecap: square"/>
   </g>
  </g>
 </g>
 <defs>
  <clipPath id="pf753abd44d">
   <rect x="57.6" y="110.756571" width="357.12" height="127.542857"/>
  </clipPath>
 </defs>
</svg>
