<?xml version="1.0" encoding="utf-8" standalone="no"?>
<!DOCTYPE svg PUBLIC "-//W3C//DTD SVG 1.1//EN"
  "http://www.w3.org/Graphics/SVG/1.1/DTD/svg11.dtd">
<svg xmlns:xlink="http://www.w3.org/1999/xlink" width="720pt" height="720pt" viewBox="0 0 720 720" xmlns="http://www.w3.org/2000/svg" version="1.1">
 <metadata>
  <rdf:RDF xmlns:dc="http://purl.org/dc/elements/1.1/" xmlns:cc="http://creativecommons.org/ns#" xmlns:rdf="http://www.w3.org/1999/02/22-rdf-syntax-ns#">
   <cc:Work>
    <dc:type rdf:resource="http://purl.org/dc/dcmitype/StillImage"/>
    <dc:date>2024-11-22T15:09:37.541816</dc:date>
    <dc:format>image/svg+xml</dc:format>
    <dc:creator>
     <cc:Agent>
      <dc:title>Matplotlib v3.9.2, https://matplotlib.org/</dc:title>
     </cc:Agent>
    </dc:creator>
   </cc:Work>
  </rdf:RDF>
 </metadata>
 <defs>
  <style type="text/css">*{stroke-linejoin: round; stroke-linecap: butt}</style>
 </defs>
 <g id="figure_1">
  <g id="patch_1">
   <path d="M 0 720 
L 720 720 
L 720 0 
L 0 0 
L 0 720 
z
" style="fill: none"/>
  </g>
  <g id="axes_1">
   <g id="line2d_1">
    <path d="M 360 360 
L 391.892106 337.33517 
L 409.710194 324.930746 
L 425.416578 314.276702 
L 439.025186 305.330344 
L 450.568804 297.996643 
L 461.98346 291.015963 
L 471.38543 285.497137 
L 480.677256 280.272929 
L 489.849749 275.363998 
L 498.89384 270.789755 
L 507.800585 266.568289 
L 514.821168 263.456382 
L 521.743767 260.588842 
L 528.564001 257.972925 
L 535.277552 255.615254 
L 541.880173 253.521796 
L 548.367685 251.697849 
L 554.735981 250.148031 
L 560.981031 248.876265 
L 567.098883 247.885768 
L 573.085665 247.17905 
L 578.937588 246.757897 
L 584.650948 246.623377 
L 590.22213 246.775829 
L 595.647607 247.214868 
L 599.619028 247.731579 
L 603.505142 248.408149 
L 607.304567 249.243614 
L 611.015949 250.236786 
L 614.637968 251.38625 
L 618.169335 252.690368 
L 621.608791 254.147285 
L 624.955113 255.754926 
L 628.207109 257.511002 
L 631.363621 259.413011 
L 634.423526 261.458247 
L 637.385734 263.643796 
L 640.249191 265.966547 
L 643.911764 269.271229 
L 647.394654 272.805558 
L 650.695654 276.56059 
L 653.812678 280.526819 
L 656.743751 284.694206 
L 659.48702 289.052203 
L 662.040747 293.589779 
L 664.403316 298.295449 
L 666.573233 303.157302 
L 668.549124 308.163032 
L 670.329738 313.29997 
L 671.913948 318.555111 
L 673.300753 323.915156 
L 674.489273 329.366537 
L 675.478758 334.895456 
L 676.26858 340.487918 
L 676.858241 346.129767 
L 677.247366 351.806725 
L 677.435709 357.504421 
L 677.423152 363.208433 
L 677.209701 368.904324 
L 676.795494 374.577678 
L 676.18079 380.214133 
L 675.36598 385.799423 
L 674.351579 391.319411 
L 673.138229 396.760125 
L 671.726698 402.107794 
L 670.11788 407.348882 
L 668.312792 412.470123 
L 666.312577 417.458554 
L 664.118501 422.301549 
L 661.731953 426.986851 
L 659.154442 431.502598 
L 656.387601 435.837363 
L 653.43318 439.980172 
L 650.293049 443.920539 
L 646.969195 447.648491 
L 643.463723 451.154593 
L 639.77885 454.429968 
L 636.898863 456.730077 
L 633.920297 458.892451 
L 630.844214 460.914012 
L 627.671709 462.791882 
L 624.403911 464.523386 
L 621.041983 466.10606 
L 617.587123 467.537649 
L 614.040559 468.816115 
L 610.403556 469.939637 
L 606.677407 470.906617 
L 602.863439 471.715676 
L 598.96301 472.365664 
L 594.977509 472.855653 
L 590.908354 473.184948 
L 585.355195 473.37326 
L 579.659411 473.274607 
L 573.824607 472.88924 
L 567.854477 472.218134 
L 561.752799 471.262988 
L 555.523434 470.026218 
L 549.170325 468.510957 
L 542.697492 466.721038 
L 536.109033 464.660993 
L 529.409117 462.336035 
L 522.601984 459.752051 
L 515.691942 456.915579 
L 508.683365 453.8338 
L 499.790842 449.648553 
L 490.760085 445.108796 
L 481.600026 440.232482 
L 472.319722 435.038892 
L 462.92835 429.548565 
L 451.525176 422.599126 
L 439.99168 415.293274 
L 428.344283 407.672606 
L 414.633831 398.441908 
L 398.836651 387.532094 
L 378.956652 373.516303 
L 315.225733 328.338078 
L 299.475742 317.561377 
L 285.818814 308.48038 
L 274.226304 301.011803 
L 262.755927 293.87908 
L 251.424017 287.122821 
L 242.098178 281.808004 
L 232.888927 276.802393 
L 223.80537 272.125783 
L 214.85649 267.796666 
L 206.051137 263.832163 
L 199.116049 260.933666 
L 192.282782 258.285921 
L 185.555662 255.89563 
L 178.938944 253.768841 
L 172.436818 251.910939 
L 166.053398 250.326626 
L 159.792724 249.019913 
L 153.658759 247.994106 
L 147.655384 247.251802 
L 141.7864 246.794881 
L 136.05552 246.624498 
L 130.466371 246.741085 
L 125.022491 247.144347 
L 121.03699 247.634336 
L 117.136561 248.284324 
L 113.322593 249.093383 
L 109.596444 250.060363 
L 105.959441 251.183885 
L 102.412877 252.462351 
L 98.958017 253.89394 
L 95.596089 255.476614 
L 92.328291 257.208118 
L 89.155786 259.085988 
L 86.079703 261.107549 
L 83.101137 263.269923 
L 80.22115 265.570032 
L 76.536277 268.845407 
L 73.030805 272.351509 
L 69.706951 276.079461 
L 66.56682 280.019828 
L 63.612399 284.162637 
L 60.845558 288.497402 
L 58.268047 293.013149 
L 55.881499 297.698451 
L 53.687423 302.541446 
L 51.687208 307.529877 
L 49.88212 312.651118 
L 48.273302 317.892206 
L 46.861771 323.239875 
L 45.648421 328.680589 
L 44.63402 334.200577 
L 43.81921 339.785867 
L 43.204506 345.422322 
L 42.790299 351.095676 
L 42.576848 356.791567 
L 42.564291 362.495579 
L 42.752634 368.193275 
L 43.141759 373.870233 
L 43.73142 379.512082 
L 44.521242 385.104544 
L 45.510727 390.633463 
L 46.699247 396.084844 
L 48.086052 401.444889 
L 49.670262 406.70003 
L 51.450876 411.836968 
L 53.426767 416.842698 
L 55.596684 421.704551 
L 57.959253 426.410221 
L 60.51298 430.947797 
L 63.256249 435.305794 
L 66.187322 439.473181 
L 69.304346 443.43941 
L 72.605346 447.194442 
L 76.088236 450.728771 
L 79.750809 454.033453 
L 82.614266 456.356204 
L 85.576474 458.541753 
L 88.636379 460.586989 
L 91.792891 462.488998 
L 95.044887 464.245074 
L 98.391209 465.852715 
L 101.830665 467.309632 
L 105.362032 468.61375 
L 108.984051 469.763214 
L 112.695433 470.756386 
L 116.494858 471.591851 
L 120.380972 472.268421 
L 124.352393 472.785132 
L 128.407705 473.141248 
L 133.942788 473.365411 
L 139.620939 473.302631 
L 145.438565 472.953064 
L 151.391984 472.317598 
L 157.477429 471.397839 
L 163.691047 470.196116 
L 170.028906 468.71547 
L 176.486996 466.95965 
L 183.061228 464.933099 
L 189.747443 462.640948 
L 196.541408 460.088997 
L 203.438824 457.283706 
L 210.435325 454.232177 
L 219.313539 450.083315 
L 228.330872 445.578224 
L 237.478407 440.734719 
L 246.747097 435.571952 
L 256.127779 430.11034 
L 267.519357 423.192419 
L 279.042617 415.914706 
L 290.681154 408.318638 
L 304.383024 399.111983 
L 320.172729 388.223281 
L 340.046913 374.224025 
L 360 360 
L 360 360 
" clip-path="url(#pdcac346e25)" style="fill: none; stroke: #ffffff; stroke-width: 22; stroke-linecap: square"/>
   </g>
  </g>
 </g>
 <defs>
  <clipPath id="pdcac346e25">
   <rect x="10.8" y="235.285714" width="698.4" height="249.428571"/>
  </clipPath>
 </defs>
</svg>
